<svg viewBox="0 0 215 55" xmlns="http://www.w3.org/2000/svg" xmlns:xlink="http://www.w3.org/1999/xlink" width="215.000000" height="55.000000" fill="none" customFrame="#000000">
	<path id="skillLink" d="M107.255 40C105.849 40 104.751 39.6094 103.962 38.8281C103.181 38.0391 102.79 36.9414 102.79 35.5352L102.79 10.5742C102.79 9.13672 103.173 8.03516 103.939 7.26953C104.712 6.49609 105.802 6.10938 107.208 6.10938C108.646 6.10938 109.74 6.49609 110.49 7.26953C111.247 8.03516 111.626 9.13672 111.626 10.5742L111.626 32.6523L123.333 32.6523C124.552 32.6523 125.49 32.9648 126.146 33.5898C126.802 34.2148 127.13 35.1211 127.13 36.3086C127.13 37.4883 126.802 38.3984 126.146 39.0391C125.49 39.6797 124.552 40 123.333 40L107.255 40ZM134.568 40.4336C133.162 40.4336 132.072 40.043 131.299 39.2617C130.533 38.4727 130.15 37.3594 130.15 35.9219L130.15 10.2344C130.15 8.76562 130.533 7.64844 131.299 6.88281C132.072 6.10938 133.162 5.72266 134.568 5.72266C136.006 5.72266 137.1 6.10938 137.85 6.88281C138.607 7.64844 138.986 8.76562 138.986 10.2344L138.986 35.9219C138.986 37.3594 138.615 38.4727 137.873 39.2617C137.139 40.043 136.037 40.4336 134.568 40.4336ZM148.531 40.4336C147.188 40.4336 146.164 40.082 145.461 39.3789C144.758 38.6758 144.406 37.6367 144.406 36.2617L144.406 10.0938C144.406 8.6875 144.758 7.60938 145.461 6.85938C146.164 6.10156 147.094 5.72266 148.25 5.72266C149.273 5.72266 150.07 5.91797 150.641 6.30859C151.219 6.69141 151.859 7.32812 152.563 8.21875L167.785 27.2266L166.438 27.2266L166.438 9.85938C166.438 8.51562 166.781 7.49219 167.469 6.78906C168.156 6.07812 169.172 5.72266 170.516 5.72266C171.859 5.72266 172.875 6.07812 173.563 6.78906C174.258 7.49219 174.606 8.51562 174.606 9.85938L174.606 36.4492C174.606 37.668 174.285 38.6367 173.645 39.3555C173.004 40.0742 172.137 40.4336 171.043 40.4336C169.957 40.4336 169.102 40.2344 168.477 39.8359C167.852 39.4297 167.188 38.7969 166.484 37.9375L151.273 18.8828L152.621 18.8828L152.621 36.2617C152.621 37.6367 152.273 38.6758 151.578 39.3789C150.891 40.082 149.875 40.4336 148.531 40.4336ZM184.488 40.4336C183.082 40.4336 181.992 40.043 181.219 39.2617C180.453 38.4727 180.07 37.375 180.07 35.9688L180.07 10.1875C180.07 8.71875 180.453 7.60938 181.219 6.85938C181.992 6.10156 183.082 5.72266 184.488 5.72266C185.926 5.72266 187.02 6.10156 187.77 6.85938C188.527 7.60938 188.906 8.71875 188.906 10.1875L188.906 20.6523L189 20.6523L200.66 7.79688C201.27 7.15625 201.918 6.65234 202.605 6.28516C203.293 5.91016 204.07 5.72266 204.938 5.72266C206.281 5.72266 207.246 6.07031 207.832 6.76562C208.426 7.45312 208.699 8.25391 208.652 9.16797C208.605 10.0742 208.23 10.9102 207.527 11.6758L195.914 24.0156L195.914 20.418L208.102 34.1875C208.938 35.1172 209.355 36.0703 209.355 37.0469C209.355 38.0234 209.027 38.832 208.371 39.4727C207.715 40.1133 206.746 40.4336 205.465 40.4336C204.379 40.4336 203.508 40.2188 202.852 39.7891C202.195 39.3516 201.48 38.7031 200.707 37.8438L189 24.7305L188.906 24.7305L188.906 35.9688C188.906 37.375 188.535 38.4727 187.793 39.2617C187.059 40.043 185.957 40.4336 184.488 40.4336Z" fill="rgb(215,47,63)" fill-rule="nonzero" />
	<path id="skillLink" d="M11.7334 40.3955C10.7725 40.3955 9.77051 40.3281 8.72754 40.1934C7.68457 40.0645 6.69434 39.8682 5.75684 39.6045C4.8252 39.3408 3.9873 39.0273 3.24316 38.6641C2.59277 38.3535 2.13574 37.9404 1.87207 37.4248C1.6084 36.9092 1.51172 36.3643 1.58203 35.79C1.6582 35.21 1.86328 34.7002 2.19727 34.2607C2.53125 33.8154 2.97363 33.5166 3.52441 33.3643C4.08105 33.2061 4.70508 33.2822 5.39648 33.5928C6.31055 34.0264 7.3418 34.3633 8.49023 34.6035C9.64453 34.8438 10.7256 34.9639 11.7334 34.9639C13.3213 34.9639 14.4316 34.7529 15.0645 34.3311C15.7031 33.9092 16.0225 33.3877 16.0225 32.7666C16.0225 32.21 15.7998 31.7646 15.3545 31.4307C14.9092 31.0967 14.124 30.8096 12.999 30.5693L8.78027 29.6641C6.47754 29.1895 4.76074 28.3516 3.62988 27.1504C2.50488 25.9492 1.94238 24.3994 1.94238 22.501C1.94238 21.2529 2.2002 20.1191 2.71582 19.0996C3.23145 18.0801 3.96387 17.21 4.91309 16.4893C5.8623 15.7686 6.99023 15.2119 8.29688 14.8193C9.60352 14.4209 11.0625 14.2217 12.6738 14.2217C13.9219 14.2217 15.1875 14.3594 16.4707 14.6348C17.7539 14.9102 18.8643 15.3262 19.8018 15.8828C20.3525 16.1699 20.748 16.5654 20.9883 17.0693C21.2285 17.5732 21.3252 18.0947 21.2783 18.6338C21.2314 19.1729 21.0439 19.6475 20.7158 20.0576C20.3936 20.4619 19.9629 20.7314 19.4238 20.8662C18.8848 21.001 18.2432 20.9102 17.499 20.5938C16.8018 20.2832 16.0137 20.0518 15.1348 19.8994C14.2617 19.7412 13.418 19.6621 12.6035 19.6621C11.7129 19.6621 10.9541 19.7646 10.3271 19.9697C9.70605 20.1689 9.23145 20.4619 8.90332 20.8486C8.58105 21.2295 8.41992 21.6719 8.41992 22.1758C8.41992 22.6797 8.63086 23.1074 9.05273 23.459C9.47461 23.8047 10.248 24.0977 11.373 24.3379L15.5479 25.2432C17.8799 25.7471 19.6201 26.5762 20.7686 27.7305C21.9229 28.8789 22.5 30.376 22.5 32.2217C22.5 33.4697 22.248 34.5977 21.7441 35.6055C21.2402 36.6133 20.5195 37.4717 19.582 38.1807C18.6445 38.8896 17.5166 39.4375 16.1982 39.8242C14.8799 40.2051 13.3916 40.3955 11.7334 40.3955ZM28.5122 40.3252C27.4575 40.3252 26.6401 40.0322 26.0601 39.4463C25.4858 38.8545 25.1987 38.0312 25.1987 36.9766L25.1987 17.6406C25.1987 16.5391 25.4858 15.707 26.0601 15.1445C26.6401 14.5762 27.4575 14.292 28.5122 14.292C29.5903 14.292 30.4106 14.5762 30.9731 15.1445C31.5415 15.707 31.8257 16.5391 31.8257 17.6406L31.8257 25.4893L31.896 25.4893L40.6411 15.8477C41.0981 15.3672 41.5845 14.9893 42.1001 14.7139C42.6157 14.4326 43.1987 14.292 43.8491 14.292C44.8569 14.292 45.5806 14.5527 46.02 15.0742C46.4653 15.5898 46.6704 16.1904 46.6353 16.876C46.6001 17.5557 46.3189 18.1826 45.7915 18.7568L37.0815 28.0117L37.0815 25.3135L46.2222 35.6406C46.8491 36.3379 47.1626 37.0527 47.1626 37.7852C47.1626 38.5176 46.9165 39.124 46.4243 39.6045C45.9321 40.085 45.2056 40.3252 44.2446 40.3252C43.4302 40.3252 42.7769 40.1641 42.2847 39.8418C41.7925 39.5137 41.2564 39.0273 40.6763 38.3828L31.896 28.5479L31.8257 28.5479L31.8257 36.9766C31.8257 38.0312 31.5474 38.8545 30.9907 39.4463C30.4399 40.0322 29.6138 40.3252 28.5122 40.3252ZM53.6042 40.3252C52.5495 40.3252 51.7321 40.0322 51.1521 39.4463C50.5778 38.8545 50.2907 38.0195 50.2907 36.9414L50.2907 17.6758C50.2907 16.5742 50.5778 15.7363 51.1521 15.1621C51.7321 14.582 52.5495 14.292 53.6042 14.292C54.6823 14.292 55.5026 14.582 56.0651 15.1621C56.6335 15.7363 56.9177 16.5742 56.9177 17.6758L56.9177 36.9414C56.9177 38.0195 56.6394 38.8545 56.0827 39.4463C55.5319 40.0322 54.7058 40.3252 53.6042 40.3252ZM64.3314 40C63.2767 40 62.4534 39.707 61.8616 39.1211C61.2757 38.5293 60.9827 37.7061 60.9827 36.6514L60.9827 17.9307C60.9827 16.8525 61.2698 16.0264 61.8441 15.4521C62.4241 14.8721 63.2415 14.582 64.2962 14.582C65.3743 14.582 66.1946 14.8721 66.7571 15.4521C67.3255 16.0264 67.6097 16.8525 67.6097 17.9307L67.6097 34.4893L76.39 34.4893C77.304 34.4893 78.0071 34.7236 78.4993 35.1924C78.9915 35.6611 79.2376 36.3408 79.2376 37.2314C79.2376 38.1162 78.9915 38.7988 78.4993 39.2793C78.0071 39.7598 77.304 40 76.39 40L64.3314 40ZM84.8514 40C83.7967 40 82.9734 39.707 82.3816 39.1211C81.7957 38.5293 81.5027 37.7061 81.5027 36.6514L81.5027 17.9307C81.5027 16.8525 81.7898 16.0264 82.3641 15.4521C82.9441 14.8721 83.7615 14.582 84.8162 14.582C85.8943 14.582 86.7146 14.8721 87.2771 15.4521C87.8455 16.0264 88.1297 16.8525 88.1297 17.9307L88.1297 34.4893L96.91 34.4893C97.824 34.4893 98.5271 34.7236 99.0193 35.1924C99.5115 35.6611 99.7576 36.3408 99.7576 37.2314C99.7576 38.1162 99.5115 38.7988 99.0193 39.2793C98.5271 39.7598 97.824 40 96.91 40L84.8514 40Z" fill="rgb(0,0,0)" fill-rule="nonzero" />
</svg>
